<svg xmlns="http://www.w3.org/2000/svg" viewBox="0 0 810 810" role="img" aria-labelledby="title desc" preserveAspectRatio="xMidYMid meet">
  <title id="title">Lore</title>
  <desc id="desc">The word Lore centered on a square white canvas.</desc>
  <defs>
    <clipPath id="lore-word-clip">
      <rect x="0" y="0" width="496" height="316"/>
    </clipPath>
  </defs>
  <rect x="0" y="0" width="810" height="810" fill="#ffffff"/>
  <g transform="translate(157 247)" clip-path="url(#lore-word-clip)" fill="#000000">
    <path d="M75.232 87.428v4.734c-5.356.156-9.414.75-12.176 1.781-2.761 1.023-4.617 2.914-5.562 5.672-.95 2.762-1.422 7.059-1.422 12.89V230.74c0 5.367.43 9.387 1.297 12.063.875 2.68 2.61 4.453 5.203 5.328 2.602.867 6.352 1.297 11.25 1.297h15.36c6.78 0 12.492-.941 17.14-2.828 4.657-1.894 8.563-4.734 11.72-8.515 3.155-3.79 5.597-8.68 7.327-14.672 1.727-5.988 3.067-13.004 4.016-21.047h5.437c-.468 5.043-.703 11.664-.703 19.86 0 3.155.113 7.773.344 13.835.238 6.063.675 12.328 1.312 18.797-8.043-.313-17.11-.504-27.203-.578-10.086-.082-19.07-.125-26.953-.125-3.625 0-8.278 0-13.953.125-5.68.074-11.79.117-18.328.117-6.543.074-13.164.152-19.86.227-6.699.074-13.125.187-19.281.344v-4.734c5.363-.313 9.383-.941 12.063-1.89 2.676-.945 4.445-2.836 5.312-5.672.875-2.832 1.313-7.086 1.313-12.765V112.506c0-5.832-.438-10.129-1.313-12.89-.867-2.758-2.68-4.649-5.438-5.673-2.75-1.03-6.73-1.624-11.937-1.78v-4.735c3.625.168 8.312.328 14.062.484 5.758.156 11.954.234 18.579.234 5.988 0 11.937-.078 17.843-.234 5.914-.156 10.766-.316 14.547-.484zM207.428 129.521c10.562 0 19.94 2.21 28.14 6.625 8.195 4.418 14.738 11.355 19.625 20.813 4.894 9.46 7.343 21.835 7.343 37.125 0 15.292-2.449 27.632-7.343 37.015-4.887 9.375-11.43 16.235-19.625 20.579-8.2 4.332-17.578 6.5-28.14 6.5-10.407 0-19.79-2.168-28.141-6.5-8.356-4.344-14.938-11.204-19.75-20.579-4.805-9.383-7.203-21.723-7.203-37.015 0-15.29 2.398-27.665 7.203-37.125 4.812-9.458 11.394-16.395 19.75-20.813 8.351-4.414 17.734-6.625 28.14-6.625zm0 4.735c-8.2 0-14.903 4.695-20.11 14.078-5.199 9.375-7.796 24.625-7.796 45.75s2.597 36.305 7.797 45.531c5.206 9.219 11.91 13.828 20.109 13.828 8.039 0 14.703-4.61 19.984-13.828 5.281-9.226 7.922-24.406 7.922-45.531s-2.64-36.375-7.922-45.75c-5.28-9.383-11.945-14.078-19.984-14.078zM356.455 129.521c4.57 0 8.472.949 11.703 2.844 3.238 1.898 5.68 4.304 7.328 7.218 1.656 2.918 2.484 6.188 2.484 9.813 0 4.574-1.382 8.476-4.14 11.703-2.75 3.23-6.414 4.844-10.985 4.844-3.95 0-7.305-1.18-10.063-3.547-2.75-2.363-4.125-5.593-4.125-9.687 0-3.47.906-6.422 2.719-8.86 1.812-2.444 3.898-4.382 6.265-5.812-1.586-1.257-3.476-1.812-5.672-1.656-4.262.168-8.203 1.555-11.828 4.156-3.625 2.594-6.703 5.902-9.234 9.922-2.524 4.023-4.492 8.32-5.906 12.89-1.418 4.575-2.125 8.829-2.125 12.766v54.39c0 7.731 2.125 12.9 6.375 15.5 4.258 2.594 10.176 3.89 17.75 3.89v4.97c-3.625-.157-8.793-.353-15.5-.595-6.699-.238-13.75-.359-21.156-.359-5.68 0-11.356.121-17.032.36-5.68.241-10.012.437-13 .594v-4.97c6.144 0 10.515-1.18 13.11-3.547 2.601-2.363 3.905-6.86 3.905-13.484v-74.25c0-7.094-1.183-12.332-3.547-15.719-2.367-3.394-6.856-5.093-13.469-5.093v-4.969c5.039.48 9.926.719 14.656.719 5.363 0 10.367-.274 15.016-.828 4.656-.551 8.953-1.38 12.89-2.484v27.187c1.895-4.57 4.415-8.984 7.563-13.234 3.156-4.258 6.941-7.77 11.36-10.531 4.413-2.758 9.3-4.14 14.656-4.14zM440.373 129.521c13.875 0 24.754 4.183 32.64 12.547 7.883 8.355 11.829 21.593 11.829 39.718h-81.594l-.469-4.484h56.985c.156-7.727-.477-14.863-1.89-21.406-1.418-6.539-3.625-11.781-6.626-15.719-2.992-3.945-6.93-5.921-11.812-5.921-6.782 0-12.657 3.59-17.626 10.765-4.968 7.168-8.007 18.637-9.109 34.407l.719 1.187c-.157 2.211-.32 4.618-.484 7.22-.157 2.593-.235 5.152-.235 7.671 0 10.875 1.656 20.024 4.969 27.438 3.312 7.406 7.644 12.964 13 16.672 5.363 3.699 10.805 5.547 16.328 5.547 4.258 0 8.394-.664 12.406-2 4.02-1.344 7.844-3.63 11.469-6.86 3.633-3.226 6.867-7.679 9.703-13.359l4.734 1.89c-1.898 5.356-4.82 10.637-8.765 15.844-3.938 5.2-8.98 9.418-15.125 12.656-6.149 3.226-13.32 4.844-21.516 4.844-11.043 0-20.664-2.484-28.86-7.453-8.2-4.969-14.508-12.102-18.922-21.406-4.406-9.301-6.609-20.332-6.609-33.094 0-14.031 2.285-26.016 6.86-35.953 4.57-9.938 10.992-17.547 19.265-22.828 8.282-5.281 17.86-7.922 28.735-7.922z"/>
  </g>
</svg>
